<svg width="435" height="351" viewBox="0 0 435 351" fill="none" xmlns="http://www.w3.org/2000/svg">
<path fill-rule="evenodd" clip-rule="evenodd" d="M152.932 349.997C137.707 349.895 123.036 347.455 109.263 343.018C55.1812 328.419 13.8702 292.995 2.83906 244.727C-3.68623 216.174 1.2844 187.068 15.204 160.469C33.8616 101.635 88.9132 59 153.923 59C155.498 59 157.068 59.0251 158.632 59.0748C165.281 55.3987 172.25 52.228 179.484 49.6146C206.152 19.2016 245.295 0 288.923 0C369.28 0 434.423 65.1426 434.423 145.5C434.423 208.5 394.382 262.149 338.361 282.385C322.181 300.838 301.409 315.163 277.829 323.577C260.5 332.439 241.408 339.457 220.967 344.128C197.748 349.434 174.78 351.259 152.932 349.997Z" fill="#FCD34D"/>
</svg>
